<svg xmlns="http://www.w3.org/2000/svg" xml:space="preserve" style="fill-rule:evenodd;clip-rule:evenodd;stroke-linejoin:round;stroke-miterlimit:2" viewBox="0 0 256 256"><path d="M240.07 21.17C240.07 9.486 230.584 0 218.9 0H21.17C9.487 0 0 9.486 0 21.17v9.294c0 11.684 9.487 21.17 21.17 21.17H218.9c11.684 0 21.17-9.486 21.17-21.17V21.17ZM256 123.353c0-11.684-9.485-21.17-21.17-21.17H21.17c-11.684 0-21.17 9.486-21.17 21.17v9.294c0 11.684 9.486 21.17 21.17 21.17h213.66c11.685 0 21.17-9.486 21.17-21.17v-9.294ZM128 225.536c0-11.684-9.486-21.17-21.17-21.17H21.17c-11.684 0-21.17 9.486-21.17 21.17v9.294C0 246.514 9.486 256 21.17 256h85.66c11.684 0 21.17-9.486 21.17-21.17v-9.294Z" class="desc-icon"/></svg>