<svg class="priority-btn" xmlns="http://www.w3.org/2000/svg" xml:space="preserve" style="fill-rule:evenodd;clip-rule:evenodd;stroke-linejoin:round;stroke-miterlimit:2" width="100%" height="100%" viewBox="0 0 256 256"><path d="M63.644 38.755h116.992a6.087 6.087 0 0 1 6.084 6.085v89.237a6.087 6.087 0 0 1-6.084 6.085H64.506V249.74a6.262 6.262 0 0 1-6.259 6.26H37.82a6.262 6.262 0 0 1-6.26-6.26V41.927a6.262 6.262 0 0 1 6.26-6.26h20.427a6.258 6.258 0 0 1 5.397 3.088Z"/><path d="M50.42 33.728v-9.634a6.262 6.262 0 0 1 6.26-6.26h20.426c2.3 0 4.31 1.24 5.398 3.088h116.992a6.087 6.087 0 0 1 6.084 6.084v89.238a6.087 6.087 0 0 1-6.084 6.084h-10.768V42.901a6.087 6.087 0 0 0-6.083-6.084H65.653a6.259 6.259 0 0 0-5.398-3.089H50.42ZM83.117 141.63l.25 90.277a6.262 6.262 0 0 1-6.26 6.26H66.514l-.249-96.537h16.851Z"/><path d="M69.28 15.895V6.26A6.262 6.262 0 0 1 75.54 0h20.426c2.3 0 4.31 1.241 5.398 3.088h116.992a6.087 6.087 0 0 1 6.084 6.085v89.238a6.087 6.087 0 0 1-6.084 6.084h-10.768V25.068a6.087 6.087 0 0 0-6.083-6.084H84.513a6.259 6.259 0 0 0-5.398-3.089H69.28Zm32.698 125.734.249 72.444a6.262 6.262 0 0 1-6.26 6.26H85.374l-.249-78.704h16.852Z"/></svg>